<svg width="30" height="30" viewBox="0 0 30 30" fill="none" xmlns="http://www.w3.org/2000/svg">
<path d="M0.5 2.28574H6.28571C10.4278 2.28574 13.7857 5.6436 13.7857 9.78574V13.7857H8C3.85787 13.7857 0.5 10.4279 0.5 6.28574V2.28574Z" stroke="#DAA520"/>
<path d="M16.2148 16.2143H22.0006C26.1427 16.2143 29.5006 19.5721 29.5006 23.7143V27.7143H23.7148C19.5727 27.7143 16.2148 24.3564 16.2148 20.2143V16.2143Z" stroke="#DAA520"/>
<path d="M16.2148 8C16.2148 3.85787 19.5727 0.5 23.7148 0.5H27.7148V6.28571C27.7148 10.4278 24.357 13.7857 20.2148 13.7857H16.2148V8Z" stroke="#DAA520"/>
<path d="M2.28516 23.7143C2.28516 19.5721 5.64302 16.2143 9.78516 16.2143H13.7852V22C13.7852 26.1421 10.4273 29.5 6.28516 29.5H2.28516V23.7143Z" stroke="#DAA520"/>
</svg>
